# xmcd
#
# Track frame offsets:
#	150
#	29395
#	42256
#	56678
#	73183
#	95064
#	113083
#	130889
#	145094
#	161548
#	176779
#	193864
#	212794
#	229544
#	242123
#	253706
#	272468
#	288885
#	308971
#	324386
#
# Disc length: 4550 seconds
#
# Revision: 1
# Processed by: cddbd v1.4PL0 Copyright (c) Steve Scherf et al.
# Submitted via: CDmax 1.9
#
DISCID=2a11c414
DTITLE=Alabama - The Country Side Of Life
DYEAR=1994
DGENRE=Country
TTITLE0=My Home's in Alabama
TTITLE1=Green River
TTITLE2=You Turn Me On
TTITLE3=Closer You Get
TTITLE4=Very Special Love
TTITLE5=There's a Fire in the Sky
TTITLE6=What in the Name of Love
TTITLE7=Louisiana Moon
TTITLE8=When We Make Love
TTITLE9=Alabama Sky
TTITLE10=If You're Gonna Play in Texas (You Gotta Have a Fiddle in the Band)
TTITLE11=Down on Longboat Key
TTITLE12=Can't Keep a Good Man Down
TTITLE13=Never Be One
TTITLE14=Lovin' Man
TTITLE15=Roll on (Eighteen Wheeler)
TTITLE16=If I Had You
TTITLE17=Carolina Mountain Dewe
TTITLE18=Forty Hour Week (For a Livin'
TTITLE19=Country Side of Life
EXTD=
EXTT0=
EXTT1=
EXTT2=
EXTT3=
EXTT4=
EXTT5=
EXTT6=
EXTT7=
EXTT8=
EXTT9=
EXTT10=
EXTT11=
EXTT12=
EXTT13=
EXTT14=
EXTT15=
EXTT16=
EXTT17=
EXTT18=
EXTT19=
PLAYORDER=
